HIERARCHY
ROOT hip
{
  OFFSET 0 0 0
  CHANNELS 6 Xposition Yposition Zposition Zrotation Yrotation Xrotation
  JOINT abdomen
  {
    OFFSET 0 20.6881 -0.73152
    CHANNELS 3 Zrotation Xrotation Yrotation
    JOINT chest
    {
      OFFSET 0 11.7043 -0.48768
      CHANNELS 3 Zrotation Xrotation Yrotation
      JOINT neck
      {
        OFFSET 0 22.1894 -2.19456
        CHANNELS 3 Zrotation Xrotation Yrotation
        JOINT head
        {
          OFFSET -0.24384 7.07133 1.2192
          CHANNELS 3 Zrotation Xrotation Yrotation
          JOINT leftEye
          {
            OFFSET 4.14528 8.04674 8.04672
            CHANNELS 3 Zrotation Xrotation Yrotation
            End Site
            {
              OFFSET 1 0 0
            }
          }
          JOINT rightEye
          {
            OFFSET -3.6576 8.04674 8.04672
            CHANNELS 3 Zrotation Xrotation Yrotation
            End Site
            {
              OFFSET 1 0 0
            }
          }
        }
      }
      JOINT rCollar
      {
        OFFSET -2.68224 19.2634 -4.8768
        CHANNELS 3 Zrotation Xrotation Yrotation
        JOINT rShldr
        {
          OFFSET -8.77824 -1.95073 1.46304
          CHANNELS 3 Zrotation Xrotation Yrotation
          JOINT rForeArm
          {
            OFFSET -28.1742 -1.7115 0.48768
            CHANNELS 3 Zrotation Xrotation Yrotation
            JOINT rHand
            {
              OFFSET -22.5879 0.773209 7.07136
              CHANNELS 3 Zrotation Xrotation Yrotation
              JOINT rThumb1
              {
                OFFSET -1.2192 -0.487915 3.41376
                CHANNELS 3 Zrotation Xrotation Yrotation
                JOINT rThumb2
                {
                  OFFSET -3.37035 -0.52449 3.41376
                  CHANNELS 3 Zrotation Xrotation Yrotation
                  End Site
                  {
                    OFFSET -1.78271 -1.18214 1.43049
                  }
                }
              }
              JOINT rIndex1
              {
                OFFSET -7.75947 0.938293 5.60832
                CHANNELS 3 Zrotation Xrotation Yrotation
                JOINT rIndex2
                {
                  OFFSET -2.54057 -0.884171 1.56538
                  CHANNELS 3 Zrotation Xrotation Yrotation
                  End Site
                  {
                    OFFSET -1.62519 -0.234802 1.16502
                  }
                }
              }
              JOINT rMid1
              {
                OFFSET -8.24714 1.18213 3.41376
                CHANNELS 3 Zrotation Xrotation Yrotation
                JOINT rMid2
                {
                  OFFSET -3.10165 -0.590103 1.0647
                  CHANNELS 3 Zrotation Xrotation Yrotation
                  End Site
                  {
                    OFFSET -2.48547 -0.328903 0.83742
                  }
                }
              }
              JOINT rRing1
              {
                OFFSET -8.82822 0.546677 1.51678
                CHANNELS 3 Zrotation Xrotation Yrotation
                JOINT rRing2
                {
                  OFFSET -2.60934 -0.819778 -0.0198488
                  CHANNELS 3 Zrotation Xrotation Yrotation
                  End Site
                  {
                    OFFSET -2.33842 -0.294052 0.168128
                  }
                }
              }
              JOINT rPinky1
              {
                OFFSET -8.27202 -0.0477905 -0.4584
                CHANNELS 3 Zrotation Xrotation Yrotation
                JOINT rPinky2
                {
                  OFFSET -1.82734 -0.647385 -0.700984
                  CHANNELS 3 Zrotation Xrotation Yrotation
                  End Site
                  {
                    OFFSET -1.69225 -0.51767 -0.607171
                  }
                }
              }
            }
          }
        }
      }
      JOINT lCollar
      {
        OFFSET 2.68224 19.2634 -4.8768
        CHANNELS 3 Zrotation Xrotation Yrotation
        JOINT lShldr
        {
          OFFSET 8.77824 -1.95073 1.46304
          CHANNELS 3 Zrotation Xrotation Yrotation
          JOINT lForeArm
          {
            OFFSET 28.1742 -1.7115 0.48768
            CHANNELS 3 Zrotation Xrotation Yrotation
            JOINT lHand
            {
              OFFSET 22.5879 0.773209 7.07136
              CHANNELS 3 Zrotation Xrotation Yrotation
              JOINT lThumb1
              {
                OFFSET 1.2192 -0.487915 3.41376
                CHANNELS 3 Zrotation Xrotation Yrotation
                JOINT lThumb2
                {
                  OFFSET 3.37035 -0.52449 3.41376
                  CHANNELS 3 Zrotation Xrotation Yrotation
                  End Site
                  {
                    OFFSET 1.78271 -1.18214 1.43049
                  }
                }
              }
              JOINT lIndex1
              {
                OFFSET 7.75947 0.938293 5.60832
                CHANNELS 3 Zrotation Xrotation Yrotation
                JOINT lIndex2
                {
                  OFFSET 2.54057 -0.884171 1.56538
                  CHANNELS 3 Zrotation Xrotation Yrotation
                  End Site
                  {
                    OFFSET 1.62519 -0.234802 1.16502
                  }
                }
              }
              JOINT lMid1
              {
                OFFSET 8.24714 1.18213 3.41376
                CHANNELS 3 Zrotation Xrotation Yrotation
                JOINT lMid2
                {
                  OFFSET 3.10165 -0.590103 1.0647
                  CHANNELS 3 Zrotation Xrotation Yrotation
                  End Site
                  {
                    OFFSET 2.48547 -0.328903 0.83742
                  }
                }
              }
              JOINT lRing1
              {
                OFFSET 8.82822 0.546677 1.51678
                CHANNELS 3 Zrotation Xrotation Yrotation
                JOINT lRing2
                {
                  OFFSET 2.60934 -0.819778 -0.0198488
                  CHANNELS 3 Zrotation Xrotation Yrotation
                  End Site
                  {
                    OFFSET 2.33842 -0.294052 0.168128
                  }
                }
              }
              JOINT lPinky1
              {
                OFFSET 8.27202 -0.0477905 -0.4584
                CHANNELS 3 Zrotation Xrotation Yrotation
                JOINT lPinky2
                {
                  OFFSET 1.82734 -0.647385 -0.700984
                  CHANNELS 3 Zrotation Xrotation Yrotation
                  End Site
                  {
                    OFFSET 1.69225 -0.51767 -0.607171
                  }
                }
              }
            }
          }
        }
      }
    }
  }
  JOINT rButtock
  {
    OFFSET -8.77824 4.35084 1.2192
    CHANNELS 3 Zrotation Xrotation Yrotation
    JOINT rThigh
    {
      OFFSET 0 -1.70687 -2.19456
      CHANNELS 3 Zrotation Xrotation Yrotation
      JOINT rShin
      {
        OFFSET 0 -36.8199 0.73152
        CHANNELS 3 Zrotation Xrotation Yrotation
        JOINT rFoot
        {
          OFFSET 0.73152 -45.1104 -5.12064
          CHANNELS 3 Zrotation Xrotation Yrotation
          End Site
          {
            OFFSET -1.1221 -3.69964 12.103
          }
        }
      }
    }
  }
  JOINT lButtock
  {
    OFFSET 8.77824 4.35084 1.2192
    CHANNELS 3 Zrotation Xrotation Yrotation
    JOINT lThigh
    {
      OFFSET 0 -1.70687 -2.19456
      CHANNELS 3 Zrotation Xrotation Yrotation
      JOINT lShin
      {
        OFFSET 0 -36.8199 0.73152
        CHANNELS 3 Zrotation Xrotation Yrotation
        JOINT lFoot
        {
          OFFSET -0.73152 -45.1104 -5.12064
          CHANNELS 3 Zrotation Xrotation Yrotation
          End Site
          {
            OFFSET 1.1221 -3.69964 12.103
          }
        }
      }
    }
  }
}
MOTION
Frames:	6
Frame Time:	0.00833333
3.01304 83.6554 6.53719 0.0 0.0 0.0 -2.30018 -0.000942058 -0.0623531 -0.634483 0.00830848 -0.109828 7.82082e-14 1.59028e-15 7.45447e-17 2.34257e-13 1.59028e-14 2.93518e-16 -0.0 0.0 0.0 -0.0 0.0 0.0 3.94101e-14 1.80925e-16 9.93923e-17 8.20323e-13 4.53478e-15 4.17448e-15 1.40936e-11 -4.09099e-12 -1.24042e-13 1.61409e-10 4.92959e-12 3.37139e-13 3.80715e-10 1.80901e-12 4.23014e-13 6.57472e-10 3.12649e-12 7.15625e-13 3.80717e-10 1.80934e-12 4.16653e-13 7.73091 5.47488 0.417314 3.80714e-10 1.80884e-12 4.16653e-13 2.90554 0.965183 0.102902 3.80713e-10 1.80854e-12 4.18243e-13 10.2786 0.731801 0.0259123 3.80709e-10 1.81212e-12 4.26194e-13 2.22167 -0.733487 -0.20892 3.91124e-14 1.83643e-16 -4.96962e-17 8.18135e-13 3.63403e-15 1.98785e-15 1.41114e-11 4.34126e-12 -1.145e-13 1.61368e-10 -3.54378e-12 3.14875e-13 3.80675e-10 1.72928e-12 4.23014e-13 6.57422e-10 2.98654e-12 7.10059e-13 3.80673e-10 1.72823e-12 4.32555e-13 -7.73091 5.47488 -0.417314 3.80675e-10 1.72873e-12 4.23014e-13 -2.90554 0.965183 -0.102902 3.80673e-10 1.72883e-12 4.20628e-13 -10.2786 0.731801 -0.0259123 3.80682e-10 1.733e-12 4.16653e-13 -2.22167 -0.733487 0.20892 -2.03217e-16 0.0 -3.88251e-19 -1.28252 -1.92859 0.00418417 -0.00873071 -2.07863 -0.0717954 -0.463141 3.99877 0.133094 2.03217e-16 0.0 3.88251e-19 -2.21825 -7.9285 0.228498 -0.00571521 8.78924 -0.145001 0.509263 -0.869111 -0.0398893
2.21894 83.0163 6.89487 -1.2237 -3.541 -1.9082 -4.0112 2.237 0.304662 -0.996208 -2.17765 -0.109315 -2.60819 -0.250463 -2.00619 6.19692 5.88344 -4.43472 -0.0 0.0 0.0 -0.0 0.0 0.0 -1.1736e-14 -1.66896e-16 1.34172e-14 -1.8007 2.28682 17.6745 -22.5529 -20.4211 14.9549 0.155414 -8.76407 -1.18031 4.57135e-10 2.56007e-11 -2.2052e-10 7.94674e-10 4.97802e-11 -3.76562e-10 4.57136e-10 2.5601e-11 -2.20528e-10 7.73091 5.47488 0.417314 4.57134e-10 2.56003e-11 -2.20523e-10 2.90554 0.965183 0.102902 4.57136e-10 2.55998e-11 -2.20523e-10 10.2786 0.731801 0.0259123 4.5713e-10 2.5602e-11 -2.20515e-10 2.22167 -0.733487 -0.20892 -1.19974e-14 -1.61678e-16 1.32363e-14 -19.3299 19.4333 -12.3301 21.4832 -19.3206 -15.0865 -0.00243197 -1.09398 0.153648 5.93185e-10 -5.0132e-10 -3.64549e-10 1.02556e-09 -8.65607e-10 -6.28888e-10 5.93183e-10 -5.01322e-10 -3.64538e-10 -7.73091 5.47488 -0.417314 5.93186e-10 -5.01321e-10 -3.64546e-10 -2.90554 0.965183 -0.102902 5.9318e-10 -5.01321e-10 -3.64548e-10 -10.2786 0.731801 -0.0259123 5.93191e-10 -5.01317e-10 -3.6455e-10 -2.22167 -0.733487 0.20892 -2.03217e-16 0.0 -3.88251e-19 -1.78197 -2.98633 3.27735 -0.00252941 4.57147 0.0609976 -0.72107 0.322737 -2.94984 2.03217e-16 0.0 3.88251e-19 -1.47679 -7.56431 -2.29293 -0.0232079 13.4502 -0.215941 0.752339 -4.0986 2.55995
2.22823 83.0164 6.89467 -1.1843 -3.5259 -1.9077 -5.85182 4.60294 0.693962 -1.37793 -4.4895 -0.109064 -5.38469 -0.514407 -4.12648 13.7567 11.9901 -9.27891 -0.0 0.0 0.0 -0.0 0.0 0.0 -6.81678e-14 -1.57662e-15 2.66682e-14 -5.13926 3.97324 36.4324 -32.8965 -36.9886 37.0804 -0.0912542 -18.0181 -2.52376 5.44098e-10 4.82251e-11 -4.75938e-10 9.50917e-10 9.52008e-11 -8.12985e-10 5.44099e-10 4.82254e-11 -4.75948e-10 7.73091 5.47488 0.417314 5.44098e-10 4.82245e-11 -4.75936e-10 2.90554 0.965183 0.102902 5.44102e-10 4.82237e-11 -4.7594e-10 10.2786 0.731801 0.0259123 5.44094e-10 4.82246e-11 -4.7593e-10 2.22167 -0.733487 -0.20892 -6.83925e-14 -1.56911e-15 2.64508e-14 -29.0172 36.7243 -30.3605 31.6271 -34.9629 -36.5988 0.00138004 -2.24919 0.316085 8.38943e-10 -1.07729e-09 -7.86787e-10 1.45132e-09 -1.86023e-09 -1.35731e-09 8.3894e-10 -1.07729e-09 -7.86774e-10 -7.73091 5.47488 -0.417314 8.38943e-10 -1.07729e-09 -7.86781e-10 -2.90554 0.965183 -0.102902 8.38934e-10 -1.07729e-09 -7.86783e-10 -10.2786 0.731801 -0.0259123 8.38948e-10 -1.07729e-09 -7.86783e-10 -2.22167 -0.733487 0.20892 -2.03217e-16 0.0 -3.88251e-19 -2.17796 -4.08532 6.74651 -0.0299777 11.6003 0.205062 -1.42366 -3.5408 -6.22078 2.03217e-16 0.0 3.88251e-19 -0.65727 -7.1642 -4.95378 -0.0283715 18.3765 -0.295627 1.32985 -7.48826 5.3399
2.22927 83.0145 6.89249 -1.1854 -3.5153 -1.898 -7.51973 6.71187 1.04516 -1.71957 -6.54958 -0.108762 -7.87708 -0.747704 -6.01904 21.4036 17.2179 -13.8669 -0.0 0.0 0.0 -0.0 0.0 0.0 -1.14028e-13 -8.62539e-16 4.00528e-14 -8.97629 4.32775 53.1978 -30.6592 -41.5765 63.4089 -0.72199 -26.2449 -3.90239 6.09974e-10 7.31839e-11 -6.62406e-10 1.06908e-09 1.43088e-10 -1.13112e-09 6.09975e-10 7.31843e-11 -6.62418e-10 7.73091 5.47488 0.417314 6.09974e-10 7.31831e-11 -6.62401e-10 2.90554 0.965183 0.102902 6.0998e-10 7.31822e-11 -6.62407e-10 10.2786 0.731801 0.0259123 6.09971e-10 7.31819e-11 -6.62397e-10 2.22167 -0.733487 -0.20892 -1.14217e-13 -8.52319e-16 3.98082e-14 -26.256 45.0386 -53.9712 30.3208 -39.4999 -61.4172 0.0103307 -3.28185 0.461617 1.01821e-09 -1.50742e-09 -1.09449e-09 1.76184e-09 -2.60279e-09 -1.88808e-09 1.0182e-09 -1.50742e-09 -1.09448e-09 -7.73091 5.47488 -0.417314 1.01821e-09 -1.50742e-09 -1.09448e-09 -2.90554 0.965183 -0.102902 1.01819e-09 -1.50742e-09 -1.09448e-09 -10.2786 0.731801 -0.0259123 1.01821e-09 -1.50742e-09 -1.09448e-09 -2.22167 -0.733487 0.20892 -2.03217e-16 0.0 -3.88251e-19 -2.41934 -5.04143 9.8488 -0.0858366 17.8714 0.34243 -2.42421 -6.93888 -9.18275 2.03217e-16 0.0 3.88251e-19 0.103562 -6.7984 -7.3233 -0.0203848 22.7718 -0.372495 2.1276 -10.4724 7.87191
2.22735 83.0139 6.89283 -1.187 -3.532 -1.898 -8.69479 8.1793 1.29489 -1.96101 -7.98027 -0.107993 -9.62217 -0.907896 -7.34183 27.2479 20.6608 -17.275 -0.0 0.0 0.0 -0.0 0.0 0.0 -1.3346e-13 5.16102e-15 5.37713e-14 -11.8422 3.76385 64.8367 -28.3636 -37.6573 79.7971 -1.44018 -31.9485 -5.02808 6.23131e-10 1.03979e-10 -6.76501e-10 1.09203e-09 1.9714e-10 -1.15353e-09 6.23131e-10 1.03979e-10 -6.76514e-10 7.73091 5.47488 0.417314 6.2313e-10 1.03978e-10 -6.76494e-10 2.90554 0.965183 0.102902 6.23138e-10 1.03977e-10 -6.76501e-10 10.2786 0.731801 0.0259123 6.23127e-10 1.03976e-10 -6.76491e-10 2.22167 -0.733487 -0.20892 -1.33616e-13 5.175e-15 5.35228e-14 -20.7604 44.7299 -71.9433 28.4305 -36.0637 -77.116 0.0197449 -4.00824 0.564252 1.03123e-09 -1.57295e-09 -1.11586e-09 1.78428e-09 -2.71523e-09 -1.92474e-09 1.03123e-09 -1.57296e-09 -1.11585e-09 -7.73091 5.47488 -0.417314 1.03123e-09 -1.57296e-09 -1.11585e-09 -2.90554 0.965183 -0.102902 1.03122e-09 -1.57296e-09 -1.11585e-09 -10.2786 0.731801 -0.0259123 1.03124e-09 -1.57295e-09 -1.11585e-09 -2.22167 -0.733487 0.20892 -2.03217e-16 0.0 -3.88251e-19 -2.52822 -5.69314 12.0131 -0.144182 22.2483 0.446601 -3.33201 -9.26851 -11.2877 2.03217e-16 0.0 3.88251e-19 0.648108 -6.54274 -8.97313 -0.00713686 25.84 -0.430336 2.84571 -12.5227 9.68044
2.20952 83.0115 6.89074 -1.2604 -3.5603 -1.885 -9.14914 8.74921 1.39803 -2.06523 -8.52873 -0.106577 -10.3018 -0.971754 -7.86516 29.6168 21.9137 -18.6565 -0.0 0.0 0.0 -0.0 0.0 0.0 -1.11468e-13 2.0741e-14 7.12045e-14 -12.9319 3.35367 69.3543 -28.2816 -34.8665 84.7246 -1.79394 -34.1595 -5.51664 5.6381e-10 1.55687e-10 -3.78056e-10 9.82234e-10 2.80402e-10 -6.3889e-10 5.63809e-10 1.55687e-10 -3.78069e-10 7.73091 5.47488 0.417314 5.63808e-10 1.55687e-10 -3.78051e-10 2.90554 0.965183 0.102902 5.63817e-10 1.55685e-10 -3.78056e-10 10.2786 0.731801 0.0259123 5.63806e-10 1.55684e-10 -3.78048e-10 2.22167 -0.733487 -0.20892 -1.11595e-13 2.07629e-14 7.09918e-14 -18.8851 43.2445 -78.2151 28.34 -33.502 -81.9738 0.0242923 -4.30609 0.606411 7.70841e-10 -1.01644e-09 -6.59364e-10 1.33287e-09 -1.75244e-09 -1.13683e-09 7.70838e-10 -1.01645e-09 -6.59347e-10 -7.73091 5.47488 -0.417314 7.70841e-10 -1.01645e-09 -6.59356e-10 -2.90554 0.965183 -0.102902 7.70829e-10 -1.01644e-09 -6.59357e-10 -10.2786 0.731801 -0.0259123 7.70844e-10 -1.01644e-09 -6.59359e-10 -2.22167 -0.733487 0.20892 -2.03217e-16 0.0 -3.88251e-19 -2.56107 -5.95359 12.8524 -0.172031 23.9759 0.490587 -3.73411 -10.1762 -12.1218 2.03217e-16 0.0 3.88251e-19 0.860229 -6.45168 -9.61786 -0.000430784 27.0511 -0.454101 3.16702 -13.3218 10.4062
